<svg width="34" height="34" viewBox="0 0 34 34" fill="none" xmlns="http://www.w3.org/2000/svg">
<g id="Group 92">
<path id="Star 2" d="M15.1834 4.39045C15.8982 2.84071 18.1008 2.84071 18.8156 4.39045L21.1923 9.54317C21.4837 10.1748 22.0822 10.6097 22.773 10.6916L28.4079 11.3597C30.1027 11.5606 30.7834 13.6554 29.5304 14.8141L25.3643 18.6668C24.8536 19.1391 24.625 19.8427 24.7605 20.5249L25.8664 26.0906C26.199 27.7645 24.4171 29.0591 22.9279 28.2255L17.9764 25.4539C17.3694 25.1142 16.6296 25.1142 16.0226 25.4539L11.0711 28.2255C9.58191 29.0591 7.79999 27.7645 8.1326 26.0906L9.23849 20.5249C9.37404 19.8427 9.14541 19.1391 8.63474 18.6668L4.46867 14.8141C3.21567 13.6554 3.8963 11.5606 5.59109 11.3597L11.2261 10.6916C11.9168 10.6097 12.5153 10.1748 12.8067 9.54316L15.1834 4.39045Z" fill="#E72B4A"/>
<path id="Star 3" d="M17 4.09753C17 3.23961 18.1671 2.98342 18.5264 3.76245L21.1928 9.54316C21.4842 10.1748 22.0827 10.6097 22.7735 10.6916L28.4084 11.3597C30.1032 11.5606 30.7838 13.6554 29.5308 14.8141L25.3648 18.6668C24.8541 19.1391 24.6255 19.8427 24.761 20.5249L25.8669 26.0906C26.1995 27.7645 24.4176 29.0591 22.9284 28.2255L18.0231 25.4798C17.3913 25.1261 17 24.4586 17 23.7346V4.09753Z" fill="#F395A5"/>
</g>
</svg>
