<svg width="33" height="33" viewBox="0 0 33 33" fill="none" xmlns="http://www.w3.org/2000/svg">
<g id="Mic" clip-path="url(#clip0_1779_18014)">
<path id="Vector" d="M16.3592 19.3271C18.5725 19.3271 20.3459 17.5405 20.3459 15.3271L20.3592 7.32715C20.3592 5.11382 18.5725 3.32715 16.3592 3.32715C14.1459 3.32715 12.3592 5.11382 12.3592 7.32715V15.3271C12.3592 17.5405 14.1459 19.3271 16.3592 19.3271ZM23.4259 15.3271C23.4259 19.3271 20.0392 22.1271 16.3592 22.1271C12.6792 22.1271 9.29255 19.3271 9.29255 15.3271H7.02588C7.02588 19.8738 10.6525 23.6338 15.0259 24.2871V28.6605H17.6925V24.2871C22.0659 23.6471 25.6925 19.8871 25.6925 15.3271H23.4259Z" fill="white"/>
<path id="Vector 43" d="M4.98633 5.91504L27.7329 28.6611" stroke="#E72B4A" stroke-width="3"/>
</g>
<defs>
<clipPath id="clip0_1779_18014">
<rect width="32" height="32" fill="white" transform="translate(0.359375 0.661133)"/>
</clipPath>
</defs>
</svg>
