<svg width="25" height="25" viewBox="0 0 25 25" fill="none" xmlns="http://www.w3.org/2000/svg">
<g id="Flip camera ios" clip-path="url(#clip0_1779_18066)">
<g id="Group">
<g id="Group_2">
<path id="Vector" d="M20.3594 5.83887H17.1894L15.3594 3.83887H9.35938L7.52938 5.83887H4.35938C3.25937 5.83887 2.35938 6.73887 2.35938 7.83887V19.8389C2.35938 20.9389 3.25937 21.8389 4.35938 21.8389H20.3594C21.4594 21.8389 22.3594 20.9389 22.3594 19.8389V7.83887C22.3594 6.73887 21.4594 5.83887 20.3594 5.83887ZM12.3594 18.8389C9.59937 18.8389 7.35938 16.5989 7.35938 13.8389H5.35938L7.85938 11.3389L10.3594 13.8389H8.35938C8.35938 16.0489 10.1494 17.8389 12.3594 17.8389C12.9394 17.8389 13.4894 17.7089 13.9794 17.4889L14.7194 18.2289C14.0094 18.5989 13.2194 18.8389 12.3594 18.8389ZM16.8594 16.3389L14.3594 13.8389H16.3594C16.3594 11.6289 14.5694 9.83887 12.3594 9.83887C11.7794 9.83887 11.2294 9.96887 10.7394 10.1889L9.99938 9.45887C10.7094 9.07887 11.4994 8.83887 12.3594 8.83887C15.1194 8.83887 17.3594 11.0789 17.3594 13.8389H19.3594L16.8594 16.3389Z" fill="white"/>
</g>
</g>
<path id="Vector 43" d="M0.986328 1.7959L23.7329 24.542" stroke="#E72B4A" stroke-width="3"/>
</g>
<defs>
<clipPath id="clip0_1779_18066">
<rect width="24" height="24" fill="white" transform="translate(0.359375 0.838867)"/>
</clipPath>
</defs>
</svg>
